# xmcd CD database file
#
# Track frame offsets:
#	150
#	14564
#	32560
#	46183
#	65153
#	76971
#	91703
#	109393
#	123483
#	142971
#	158346
#	172560
#	191678
#	206798
#
# Disc length: 3003 seconds
#
# Revision: 0
# Processed by: cddbd v1.5.1PL0 Copyright (c) Steve Scherf et al.
# Submitted via: CDex 1.51
#
DISCID=b00bb90e
DTITLE=Bud Shank - Bossa Nova Years [CD2]
DYEAR=1961
DGENRE=Jazz
TTITLE0=Um Abraço no Bonfa
TTITLE1=Autumn Leaves
TTITLE2=Minha Saudade
TTITLE3=Elizete
TTITLE4=Misty
TTITLE5=Tristeza em mim
TTITLE6=Que mais?
TTITLE7=It was Night
TTITLE8=Samba guapo
TTITLE9=Ela é Carioca
TTITLE10=Sambou...Sambou
TTITLE11=Wistful Samba
TTITLE12=O' Barquinho
TTITLE13=Once I Loved
EXTD=YEAR: 1961
EXTT0=
EXTT1=
EXTT2=
EXTT3=
EXTT4=
EXTT5=
EXTT6=
EXTT7=
EXTT8=
EXTT9=
EXTT10=
EXTT11=
EXTT12=
EXTT13=
PLAYORDER=
